<svg xmlns="http://www.w3.org/2000/svg" id="Layer_1" data-name="Layer 1" viewBox="0 0 463.36 512"><defs><clipPath id="clippath"><path d="M9.63 365.49A464 464 0 0 0 55.3 439.3a464 464 0 0 0 52.63 58.51c22.05-8.14 36.29-18.72 44.94-26.43 24.82-22.13 26.53-41.05 50.46-51.12 11.6-4.88 12.32-.91 37.21-5.23 12.01-2.09 38.51-6.69 64.06-20.84 12.54-6.94 34.58-21.57 54.1-50.47 4.72-62.33-8.54-92.96-17.09-107.07-3.03-5-12.49-19.52-21.75-33.21a1355 1355 0 0 0-27.1-38.58c-3.96.14-10.1.68-17.15 2.85-20.88 6.42-28.4 20.48-43.97 34.58-5.52 5-40.09 36.33-68.2 28.55-19.8-5.48-24.51-27.07-32.25-25.38-7.01 1.54-12.82 21.37-7.4 102.03-38.05 19.34-76.11 38.67-114.16 58.01Z" class="cls-9"/></clipPath><clipPath id="clippath-1"><path d="m290.14 399.04 35.14 92.65c3.41-1.58 7-3.31 10.74-5.22 18.09-9.2 39.83-22.43 62.08-41.32 26-22.08 44.21-44.69 56.39-62.36-30.87-11.33-61.74-22.66-92.61-33.98z" class="cls-4"/></clipPath><clipPath id="clippath-2"><path d="m84.93 132.44 104.06 92.6 86.62-57.35-5.36-104.94 12.26-38.83-106.73 67.74-39.84-58.04-45.95 50.15z" class="cls-4"/></clipPath><style>.cls-1{fill:#7b6b51}.cls-2{fill:#393939}.cls-4{fill:#fbf3e1}.cls-7{fill:#4e4e4e}.cls-8{fill:#a89067}.cls-9{fill:#97969a}.cls-10{fill:#f2f2f2}</style></defs><path d="M9.63 365.49A464 464 0 0 0 55.3 439.3a464 464 0 0 0 52.63 58.51c22.05-8.14 36.29-18.72 44.94-26.43 24.82-22.13 26.53-41.05 50.46-51.12 11.6-4.88 12.32-.91 37.21-5.23 12.01-2.09 38.51-6.69 64.06-20.84 12.54-6.94 34.58-21.57 54.1-50.47 4.72-62.33-8.54-92.96-17.09-107.07-3.03-5-12.49-19.52-21.75-33.21a1355 1355 0 0 0-27.1-38.58c-3.96.14-10.1.68-17.15 2.85-20.88 6.42-28.4 20.48-43.97 34.58-5.52 5-40.09 36.33-68.2 28.55-19.8-5.48-24.51-27.07-32.25-25.38-7.01 1.54-12.82 21.37-7.4 102.03-38.05 19.34-76.11 38.67-114.16 58.01Z" class="cls-9"/><g style="clip-path:url(#clippath)"><path d="m137.31 306.95-.42-35.28c.93.22 2.36.4 3.83-.14 5.08-1.86 5.72-10.48 7.57-19.03 1.2-5.56 3.44-13.5 8-22.94 7.57 1.37 15.14 2.75 22.71 4.12-8.4 7.7-20.05 20.28-29.41 38.49a137 137 0 0 0-12.28 34.77ZM72.61 459.78c14.02 15.16 28.04 30.33 42.06 45.49a326.3 326.3 0 0 0 88.65-85.02c21.02-.84 57.18-5.08 96.38-25.09 28.93-14.76 49.31-32.89 62.16-46.35v-82.58l-68.78-95.9-31.94 7.91-27.46 26.26c.9-.37 16.03-6.26 29.02 3.17 9.8 7.11 14.25 19.93 11.08 32.19 9.84-2.23 20.05.93 26.39 8.27 7.58 8.77 8.4 22.07 1.72 32.44 2.8 1.61 8.16 5.22 11.81 11.89 5.26 9.61 3.41 19.09 2.65 23.04-3.34 17.15-17.3 26.43-20.55 28.47-.19.59-1.17 3.37-4.17 4.98-2.94 1.58-5.75.91-6.36.75a54.1 54.1 0 0 1-20.05 5.87c-8.31.75-15.1-.59-19.34-1.77-.45.86-1.46 2.47-3.38 3.63-3.7 2.23-7.66.88-8.26.67-2.37 3.2-9.6 12.1-22.64 16.11-10.54 3.24-19.51 1.63-23.52.65-.74 1.21-1.96 2.63-4.01 3.68 0 0-.06.03-.13.06-1.25.61-3.32 1.2-6.72.81a369 369 0 0 1-56.99 51.11 369 369 0 0 1-47.63 29.26Z" class="cls-7"/><path d="M278.76 168.48c6.07 4.64 12.14 9.28 18.22 13.92-.57 3.47-1.59 7.75-3.48 12.41a57.7 57.7 0 0 1-9.08 15.13c-1.17-2.46-4.51-8.65-11.8-13.01-8.06-4.82-15.9-4.39-18.53-4.14 8.22-8.1 16.45-16.2 24.67-24.3ZM288.13 229.56c5.88 1.46 14.58 4.59 22.5 11.77 2.01 1.82 3.72 3.68 5.17 5.48 2.71-1.19 6.12-3 9.68-5.75 3.35-2.58 5.85-5.23 7.66-7.43-.13-2.06-.71-6.93-4.21-11.66-4.65-6.28-11.21-7.96-12.99-8.35a77 77 0 0 0-11.8 4.91 77.4 77.4 0 0 0-16 11.03ZM317.81 267.76c3.88 1.83 10.29 5.53 15.68 12.51 2.63 3.41 4.36 6.74 5.5 9.49 2.81-1.05 6.59-2.79 10.53-5.74a42.4 42.4 0 0 0 9.01-9.17c-.29-2.27-1.26-7.43-5.25-12.33-5.08-6.25-11.7-7.98-13.79-8.45-7.23 4.56-14.45 9.13-21.68 13.69" class="cls-9"/><path d="M276.96 179.13c-.79.3-3 1.27-4.45 3.66-.52.85-1.84 3.03-1.13 5.27 1.1 3.48 6.44 5.05 9.18 3.47.16-.09.63-.27 1.43-1.34 1.01-1.34 3.13-4 3.35-5.32-.1-3.89-4.74-6.73-8.38-5.75ZM310.95 222.09c-.91.24-1.81.52-2.66.91-2.39 1.09-4.34 3.18-3.45 5.98 1.1 3.48 6.44 5.05 9.18 3.47 1.03-.59 1.91-1.49 2.78-2.29.63-.58 1.24-1.19 1.68-1.92s.7-1.6.57-2.44c-.2-1.32-1.06-2.68-2.24-3.3-.77-.41-1.66-.52-2.53-.53-1.05-.01-2.31-.13-3.32.13ZM337.28 263.39c-.91.24-1.81.52-2.66.91-1.14.52-2.24 1.29-2.95 2.34s-1.12 2.52-.22 3.51c.54.59 1.08 1.16 1.64 1.73.92.94 1.97 1.98 3.28 2.34s2.85.18 3.98-.48c.68-.39 1.28-.9 1.85-1.43.46-.42 1.05-.77 1.44-1.24.33-.39.67-.8.86-1.28.19-.5.21-1.05.22-1.58 0-.35 0-.72-.1-1.05-.11-.33-.32-.61-.54-.87-1.61-1.93-4.21-3.58-6.8-2.9M276.94 248.21c-13.1 1.94-24.82 24.47-3.42 17.65 9.98-3.18 33.73 8.89 25.31-11.26-4.73-7.43-13.95-8.87-21.89-6.39M18.74 386.42a1808 1808 0 0 1 126.04-61.37c.4-.95 1.3-2.76 3.18-4.35 2.08-1.76 4.26-2.31 5.28-2.51l19.41-39.99c-.04-.46-.3-3.74 2.18-6.14 1.59-1.54 3.45-1.89 4.16-1.98a85.4 85.4 0 0 1 11.88-16.43 85.7 85.7 0 0 1 15.29-13.09c.35-1.04 1.4-3.67 4.11-5.72 2.16-1.63 4.34-2.09 5.43-2.25 2.59-2.18 31.77-26.34 44.4-18.2.65.42 2.31 1.49 3.33 3.53 3.14 6.29-4.61 14.43-15.46 32.8-2.89 4.89-5.06 8.9-6.27 11.2-.37-.11-3.09-.85-5.49.85-2.03 1.43-3.02 4.04-2.52 6.63a791.854 791.854 0 0 0-23.02 33.17c-.83.2-3.07.86-4.95 2.97a9.84 9.84 0 0 0-2.37 5.14q-1.23 1.26-2.49 2.52a292 292 0 0 1-32.81 28.18c-.36-.08-3-.61-5.3 1.19-2.01 1.58-2.32 3.82-2.37 4.25a2366 2366 0 0 0-49.6 34.75c-22.66 16.3-44.43 32.58-65.35 48.74a3092 3092 0 0 0-26.68-43.88ZM139.4 242.88c.16 1.05.91 5.8 2.41 5.92.51.04.98-.47 1.3-.92 1.66-4.46 1.6-9.5 3.44-13.94.54-1.22.71-2.76-.73-3.25-1.14-.57-3.58-2.47-4.77-1.66-2.3 6.31-2.1 11.03-1.66 13.85Z" class="cls-10"/><path d="M161.44 255.55c-1.32 1.93-2.59 3.89-3.79 5.88 9.32 8.39 18.33 17.18 26.96 26.3 6.45 6.81 15.1 15.95 24.76 28.32 25.18 32.26 37.52 61.31 40.79 69.29 4.18 10.2 7.04 18.93 8.89 25.09l-3.14.78c-8.54-24.78-23.3-58.35-49.37-92.9a334.8 334.8 0 0 0-50.77-53.71 126.4 126.4 0 0 0-13.72 35.94 474 474 0 0 1 23.25 32.28c19.78 30.07 36.15 62.51 48.66 96.41l-3.4 1.26c-12.41-33.64-28.66-65.83-48.29-95.67a466 466 0 0 0-21.15-29.57c-.58 3.27-1.05 6.58-1.39 9.94a466 466 0 0 1 15.94 22.74 474.2 474.2 0 0 1 48.66 96.41l-3.4 1.26c-12.41-33.64-28.66-65.83-48.29-95.67a462 462 0 0 0-16-22.8l-.66-.87a136.206 136.206 0 0 1 2.17-14.78c.31-1.53.64-3.05 1.01-4.56 2.94-12.24 7.57-23.88 13.85-34.78.24-.43.5-.86.75-1.29.37-.63.75-1.26 1.13-1.88 5.7-9.27 12.58-17.82 20.48-25.46l2.52 2.61c-5.26 5.09-10.06 10.6-14.34 16.47 24.23 20.58 42.17 40.99 54.91 57.48 25.76 33.34 39.61 62.78 44.26 73.13 4.1 9.11 7.13 16.89 9.17 22.42-1.15.31-2.29.61-3.44.92-9.87-25.71-26.04-59.43-52.81-94.19a373 373 0 0 0-54.2-56.79ZM311.05 382.11c-13.69-33.6-31.28-65.57-52.3-95.01a467 467 0 0 0-56.77-65.59l2.51-2.62a471 471 0 0 1 57.21 66.1 470 470 0 0 1 52.71 95.75z" class="cls-2"/><path d="M301.49 387.62c-13.77-33.56-31.37-65.53-52.31-95.02a478 478 0 0 0-55.82-65.26l2.53-2.6a482 482 0 0 1 56.25 65.75 481.4 481.4 0 0 1 52.7 95.74l-3.35 1.38ZM336.8 371.38l-3.58-1.96a55.75 55.75 0 0 0 6.77-24.42c.46-11.78-2.95-21.22-5.88-27.06l-.47-.94.49-.93c1.21-2.36 6.07-12.54 2.59-25.02-4.07-14.59-16.36-20.83-18.3-21.78-.36-.03-.72-.07-1.07-.1l.57-3.35c.13-1.98.79-14.89-9.22-24.94-8.7-8.74-19.47-9.31-21.86-9.38l-2.2-.11.28-2.19c.5-3.89.94-13.95-5.83-23.24-8.66-11.89-22.33-13.08-24.98-13.19l.18-4.08c2.98.13 18.33 1.47 28.09 14.87 6.61 9.06 7.13 18.76 6.79 24.04 3.02.26 13.65 1.55 22.38 10.36 11.21 11.31 10.33 25.97 10.15 28.22 2.29 1.25 14.67 8.3 18.95 23.73 3.71 13.37-1.08 24.3-2.42 27.12 3.04 6.32 6.33 16.08 5.86 28.13-.36 9.11-2.87 18.18-7.26 26.22Z" class="cls-2"/></g><path d="m290.14 399.04 35.14 92.65c3.41-1.58 7-3.31 10.74-5.22 18.09-9.2 39.83-22.43 62.08-41.32 26-22.08 44.21-44.69 56.39-62.36-30.87-11.33-61.74-22.66-92.61-33.98z" class="cls-4"/><path d="M344.66 477.93c-.77-19.69.35-46.43 8.16-76.84 5.37-20.89 12.6-38.42 19.49-52.28-5.77-.06-12 .45-18.53 1.86-35.97 7.73-56.67 37.26-63.64 48.38 10.17 29.45 20.34 58.91 30.51 88.36l24.01-9.47Z" class="cls-8" style="clip-path:url(#clippath-1)"/><path d="m84.93 132.44 104.06 92.6 86.62-57.35-5.36-104.94 12.26-38.83-106.73 67.74-39.84-58.04-45.95 50.15z" class="cls-4"/><g style="clip-path:url(#clippath-2)"><path d="M134.36 38.63c-4.53 10.63-9.96 27.16-10.46 47.85a129 129 0 0 0 2.76 29.85c-13.91 5.37-27.82 10.74-41.73 16.1-.38-10.28 0-37.53 18-63.93 10.55-15.47 23.15-24.78 31.43-29.88ZM101.93 127.17c12.06 12.05 28.9 26.47 51.09 39.45 31.38 18.35 60.8 26.44 81.16 30.28-14.33 7.15-28.65 14.3-42.98 21.45L84.92 132.44c5.67-1.76 11.34-3.51 17-5.27Z" class="cls-8"/></g><path d="m240.54 415.02-9.65 76.67 84.22-13.94-4.39-42.4-20.58-36.31zM83.91 101.05l-36.78 59.74 120.82 67.84 24.3-5.06-107.32-91.13zM146.7 50.8l29.08 40.85L282.52 16.2c-18.1.04-41.71 1.82-68.46 8.47a286.9 286.9 0 0 0-67.35 26.13Z" class="cls-1"/><path d="M463.3 383.21c-.81-9.53-9.32-13.93-12.53-15.59-5-2.59-12-5.2-21.69-8.81-2.43-.91-5.05-1.88-7.84-2.93-7.19-2.71-9.64-3.7-11.27-4.36-1.58-.64-2.62-1.07-6-2.27a441 441 0 0 0-33.04-10.32c.15-5.28-.22-10.55-1.13-15.76-.72-4.08-1.76-8.11-3.11-12.04 4.82-7.73 11.56-22.72 6.36-40.53-3.85-13.17-12.51-21.47-18.82-26.01-.19-10.95-3.85-26.24-16.61-36.44-4.86-3.89-10.64-6.68-16.85-8.22-.57-8.44-3.26-20.11-12.49-30.2-7.58-8.3-16.44-12.24-23.35-14.1-5.52-18.27-10.45-44.09-6.9-72.07 1.87-14.78 3.35-26.45 10.36-40.32 2.58-5.11 5.04-8.75 7-11.68 3.53-5.24 7.92-11.77 4.43-19.75C294.09-1.3 274.73-.87 258.51.96c-15.28 1.73-34.65 5.97-51.8 11.33-19.43 6.08-38.16 14.34-55.83 24.59l-14.27-19.82-8.56 5.77c-12.49 8.41-23.27 18.83-32.03 30.97a126.7 126.7 0 0 0-16.56 31.46c-6.9 8.31-13.76 16.62-20.4 24.71-9.8 11.94-16.03 19.65-19.97 26-3.45 5.56-7.14 13.11-4.96 22.1 2.77 11.47 12.66 17.14 17.98 20.19l1.22.7c18.39 10.55 39 22.38 62.3 35.46-2.93 11.33-4.8 22.91-5.57 34.54-1.21 18.33.27 36.68 4.41 54.66a893 893 0 0 0-50.44 23.54 880 880 0 0 0-59.05 32.75c-.89.6-2.98 2.18-4.16 5.07-1.68 4.11-.27 7.81.06 8.61 13.69 28.82 30.91 55.87 51.19 80.39a386.7 386.7 0 0 0 56.26 55.33c.46.43 3.17 2.94 7.23 2.69 3.13-.2 5.19-1.92 5.81-2.48a587 587 0 0 0 45.89-38.24 583 583 0 0 0 38.07-38.64c4.82-.63 9.63-1.27 14.34-1.9l5.99-.81c-.33 2.02-.68 4.02-1.04 6.01-.74 4.08-4.47 25.45-5.33 45.99-.13 3.02-.46 11.06 5.16 17.55 6.57 7.6 16.38 7.69 20.57 7.73 19.42.19 34.36-4.62 34.98-4.83 9.96-3.25 19.9-7.1 29.68-11.5l.66 2.13c.59 1.95 2.39 7.88 8.5 10.73 2.83 1.33 7.47 2.36 13.46-.25 33.06-14.42 70.41-46.41 71.99-47.76 1.41-1.22 34.97-30.25 55.74-60.96.94-1.39 3.79-5.61 3.29-11.52ZM213.07 32.61c13.99-4.38 29.59-7.97 42.79-9.85 6.01-.86 10.72-1.24 14.38-1.36a458 458 0 0 1-48.44 36.39 462 462 0 0 1-45.26 25.98 137.4 137.4 0 0 1-18.32-20.1c-1.09-1.46-2.14-2.95-3.17-4.46a254.3 254.3 0 0 1 58.01-26.6Zm52.95 133.9a326 326 0 0 1-38.14 30.32 325 325 0 0 1-36.67 21.52 1429 1429 0 0 0-23.56-20c-6.1-5.05-10.08-8.26-10.88-8.9 0 0-.02-.01-.03-.02l-.48-.39c-22.58-18.12-54.09-44.05-64.43-53.74a307 307 0 0 0 42.47-14.55 307 307 0 0 0 50.63-27.5 477 477 0 0 0 43.58-25.21 470 470 0 0 0 37.57-27.26c-5.89 14.16-7.49 26.81-9.18 40.09-4.32 34.13 2.43 65.13 9.13 85.64ZM122.72 54.94c2.94-3.04 5.94-5.79 8.95-8.28 4.46 7.5 9.97 15.75 16.74 24.31 6.02 7.61 12.03 14.18 17.66 19.79-11.75 7.09-24 13.36-36.58 18.74A295.6 295.6 0 0 1 90 123.13c3.14-18.72 11.07-45.8 32.73-68.18Zm-58.8 105.52c-1.65-.68-4.06-1.9-6.44-4.09-1.29-1.19-2.2-2.04-2.64-3.32-.93-2.68.79-5.54 2.7-8.44 6.2-9.42 12.31-16.13 13.32-17.23a369 369 0 0 1 6.52-6.91c-.97 4.63-1.67 8.03-1.7 8.37l-.02.19c-.02.27-.03.53-.04.72v.31c0 .56.03 1.12.09 1.69.08.69.6 4.32 3.28 7.81 1.12 1.46 4.09 5.32 37.71 33.05 8.56 7.06 16.92 13.86 22.42 18.32 6.47 5.25 8.92 7.23 10.01 8.06h-.01c1.45 1.17 13.52 10.9 29.7 24.82-2.95 1.18-5.31 1.3-6.86 1.22-8.47-.47-13.11-7.52-23.17-15.4-1.19-.93-5.93-3.86-15.41-9.7-24.98-15.41-66.97-38.12-69.43-39.45Zm152.9 249.13c-5.97.8-12.1 1.61-18.19 2.41l-3.96.52-2.64 2.99a563 563 0 0 1-39.24 40.11c-12 11.09-24.61 21.76-37.58 31.79a365.5 365.5 0 0 1-46.73-47.02 364.3 364.3 0 0 1-44.1-67.27c16.1-9.5 32.63-18.55 49.26-26.96a871 871 0 0 1 57.52-26.48l8.72-3.63-2.57-9.1c-3.84-13.62-7.54-33.19-5.99-56.6.82-12.33 2.92-23.15 5.34-32.15 5.48 3.79 9.75 6.89 12.48 8.88 6.78 4.97 9.37 7.11 14.17 8.6.98.3 4.34 1.37 8.8 1.37 6.42 0 13.44-1.99 20.97-5.97.02 0 .03-.02.05-.03a337 337 0 0 0 41.63-24.1c14-9.5 27.35-20.13 39.8-31.67l.83.1c3.12.39 11.05 2.01 17.17 8.7 4.19 4.59 6.5 10.56 6.98 16.72.16 2 0 3.95-.07 5.95-.16 4.06-2.45 6.75-3.98 9.04-2.87 4.32-8.06 10.12-10.13 13.89-.47.86-.74 1.53-.53 1.73.28.26 1.31-.43 1.91-.86 3.92-2.84 7.92-5.62 12.3-7.68 8.48-3.98 17.68-4.17 25.26 1.9 7.65 6.12 11.73 19.54 5.2 27.57-.32.39-1.37 1.8-3.57 4.55-2.29 2.86-4.5 5.79-6.8 8.65-1.75 2.18-2.77 3.41-2.5 3.74.24.29 1.36-.26 3.51-1.32 0 0 1.11-.54 3.31-1.74 0 0 4.15-3.03 12.95-6.38.38-.14 1.23-.48 2.21-.23.65.16 1.17.62 2.04 1.34 5.33 4.41 9.91 8.7 11.93 15.62 4.12 14.09-5.59 25.65-6 26.14-1.43 1.66-2.87 3.34-4.23 5.04-2.94 3.66-7.17 6.75-10.78 9.91-.16.14-.34.35-.23.53.06.1.17.13.27.16 2.67.82 10.63-2 10.63-2 1.72-.57 2.64-.82 3.17-1.09 1.24 3.02 2.57 6.93 3.38 11.56.42 2.42.6 4.43.67 5.28.33 4.18.2 8.38-.39 12.57-5.35 16.01-27.36 28.34-43.92 37.61-18.44 10.34-38.46 18.17-59.59 23.32l-8.83 1.23c-6.62.92-13.33 1.85-19.93 2.73Zm56.59 72.49c-.12.04-12.45 3.94-28.2 3.79-2.76-.02-4.01-.25-4.58-.44-.13-.74-.08-2.09-.05-2.64.82-19.55 4.58-40.73 5.01-43.09 1.24-6.84 2.32-13.89 3.21-20.95l.17-1.34c12.16-2.99 23.97-6.83 35.35-11.49 8.18 13.8 15.13 28.41 20.67 43.44a256 256 0 0 1 5.73 17.44c-12.21 6.04-24.77 11.19-37.31 15.28m116.96-42.54c-.34.29-32.46 27.79-61.33 41.93-.86-2.6-1.85-5.52-3.04-8.9-2.64-8.72-5.78-17.9-9.53-27.44a363 363 0 0 0-20.87-44.16c5.3-2.48 10.48-5.14 15.55-7.98 15.68-8.79 35.67-19.99 45.45-35.75l.34.09c13.6 3.38 27.01 7.42 39.86 12 2.95 1.05 3.69 1.35 5.15 1.94 1.72.7 4.32 1.75 11.76 4.56 2.82 1.06 5.46 2.04 7.92 2.96 7.05 2.63 14.28 5.32 18.44 7.3-19.34 27.16-49.41 53.19-49.71 53.46Z" style="fill:#010102"/></svg>