<svg xmlns="http://www.w3.org/2000/svg" style="display: none;">
  <symbol id="top" fill="none" stroke="currentColor" stroke-linecap="round" stroke-width="2" viewBox="0 0 24 24"><path d="M12 19V5M5 12l7-7 7 7"/></symbol>
  <symbol id="show" fill="none" stroke="currentColor" stroke-linecap="round" stroke-linejoin="round" stroke-width="2" viewBox="0 0 24 24"><path d="M10 12a2 2 0 1 0 4 0 2 2 0 0 0-4 0"/><path d="M21 12q-3.6 6-9 6t-9-6q3.6-6 9-6t9 6"/></symbol>
  <symbol id="hide" fill="none" stroke="currentColor" stroke-linecap="round" stroke-linejoin="round" stroke-width="2" viewBox="0 0 24 24"><path d="M10.585 10.587a2 2 0 0 0 2.829 2.828"/><path d="M16.681 16.673A8.7 8.7 0 0 1 12 18q-5.4 0-9-6 1.908-3.18 4.32-4.674m2.86-1.146A9 9 0 0 1 12 6q5.4 0 9 6-1 1.665-2.138 2.87M3 3l18 18"/></symbol>
</svg>
