<svg xmlns="http://www.w3.org/2000/svg" style="display: none;">
  <symbol id="close" fill="none" stroke="currentColor" stroke-linecap="round" stroke-width="2" viewBox="0 0 24 24"><path d="M18 6 6 18M6 6l12 12"/></symbol>
  <symbol id="faq" fill="none" stroke="currentColor" stroke-linecap="round" stroke-width="2.5" viewBox="0 0 24 24"><circle cx="12" cy="12" r="10"/><path d="M9.09 9a3 3 0 0 1 5.83 1c0 2-3 3-3 3M12 17h.01"/></symbol>
  <symbol id="options" fill="currentColor" viewBox="0 0 16 16"><path d="M7.068.727c.243-.97 1.62-.97 1.864 0l.071.286a.96.96 0 0 0 1.622.434l.205-.211c.695-.719 1.888-.03 1.613.931l-.08.284a.96.96 0 0 0 1.187 1.187l.283-.081c.96-.275 1.65.918.931 1.613l-.211.205a.96.96 0 0 0 .434 1.622l.286.071c.97.243.97 1.62 0 1.864l-.286.071a.96.96 0 0 0-.434 1.622l.211.205c.719.695.03 1.888-.931 1.613l-.284-.08a.96.96 0 0 0-1.187 1.187l.081.283c.275.96-.918 1.65-1.613.931l-.205-.211a.96.96 0 0 0-1.622.434l-.071.286c-.243.97-1.62.97-1.864 0l-.071-.286a.96.96 0 0 0-1.622-.434l-.205.211c-.695.719-1.888.03-1.613-.931l.08-.284a.96.96 0 0 0-1.186-1.187l-.284.081c-.96.275-1.65-.918-.931-1.613l.211-.205a.96.96 0 0 0-.434-1.622l-.286-.071c-.97-.243-.97-1.62 0-1.864l.286-.071a.96.96 0 0 0 .434-1.622l-.211-.205c-.719-.695-.03-1.888.931-1.613l.284.08a.96.96 0 0 0 1.187-1.186l-.081-.284c-.275-.96.918-1.65 1.613-.931l.205.211a.96.96 0 0 0 1.622-.434zM12.973 8.5H8.25l-2.834 3.779A4.998 4.998 0 0 0 12.973 8.5m0-1a4.998 4.998 0 0 0-7.557-3.779l2.834 3.78zM5.048 3.967l-.087.065zm-.431.355A4.98 4.98 0 0 0 3.002 8c0 1.455.622 2.765 1.615 3.678L7.375 8zm.344 7.646.087.065z"/></symbol>
  <symbol id="top" fill="none" stroke="currentColor" stroke-linecap="round" stroke-width="2" viewBox="0 0 24 24"><path d="M12 19V5M5 12l7-7 7 7"/></symbol>
  <symbol id="show" fill="none" stroke="currentColor" stroke-linecap="round" stroke-linejoin="round" stroke-width="2" viewBox="0 0 24 24"><path d="M10 12a2 2 0 1 0 4 0 2 2 0 0 0-4 0"/><path d="M21 12q-3.6 6-9 6t-9-6q3.6-6 9-6t9 6"/></symbol>
  <symbol id="hide" fill="none" stroke="currentColor" stroke-linecap="round" stroke-linejoin="round" stroke-width="2" viewBox="0 0 24 24"><path d="M10.585 10.587a2 2 0 0 0 2.829 2.828"/><path d="M16.681 16.673A8.7 8.7 0 0 1 12 18q-5.4 0-9-6 1.908-3.18 4.32-4.674m2.86-1.146A9 9 0 0 1 12 6q5.4 0 9 6-1 1.665-2.138 2.87M3 3l18 18"/></symbol>
</svg>
